Coordinates
nRows=138
nColumns=2
inDegrees=yes
endheader
time	ankle_angle_r	
3	  9.502592	
3.0625	  9.441376	
3.125	  9.437924	
3.1875	  9.513128	
3.25	  9.419032	
3.3125	  9.484791	
3.375	  9.475708	
3.4375	  9.389060	
3.5	  9.455363	
3.5625	  9.465717	
3.625	  9.390695	
3.6875	  9.567261	
3.75	  9.542556	
3.8125	  9.563991	
3.875	  9.518214	
3.9375	  9.475708	
4	  9.506226	
4.0625	  9.508042	
4.125	  9.583973	
4.1875	  9.544917	
4.25	  9.536016	
4.3125	  9.567261	
4.375	  9.445190	
4.4375	  9.544554	
4.5	  9.482974	
4.5625	  9.437016	
4.625	  9.475708	
4.6875	  9.445190	
4.75	  9.475708	
4.8125	  9.466807	
4.875	  9.368896	
4.9375	  9.429932	
5	  9.411039	
5.0625	  9.466081	
5.125	  9.552002	
5.1875	  9.542011	
5.25	  9.557088	
5.3125	  9.536199	
5.375	  9.536743	
5.4375	  9.542919	
5.5	  9.495326	
5.5625	  9.578341	
5.625	  9.559995	
5.6875	  9.563446	
5.75	  9.578886	
5.8125	  9.513128	
5.875	  9.540013	
5.9375	  9.503138	
6	  9.460449	
6.0625	  9.506226	
6.125	  9.485881	
6.1875	  9.503864	
6.25	  9.460449	
6.3125	  9.368896	
6.375	  9.385972	
6.4375	  9.413038	
6.5	  9.413219	
6.5625	  9.489696	
6.625	  9.476798	
6.6875	  9.460449	
6.75	  9.415400	
6.8125	  9.460994	
6.875	  9.521484	
6.9375	  9.429932	
7	  9.445190	
7.0625	  9.445190	
7.125	  9.445917	
7.1875	  9.475163	
7.25	  9.474981	
7.3125	  9.490059	
7.375	  9.506226	
7.4375	  9.506226	
7.5	  9.582520	
7.5625	  9.552002	
7.625	  9.536743	
7.6875	  9.550004	
7.75	  9.506226	
7.8125	  9.521484	
7.875	  9.503682	
7.9375	  9.518760	
8	  9.570168	
8.0625	  9.448278	
8.125	  9.567261	
8.1875	  9.499323	
8.25	  9.403048	
8.3125	  9.418488	
8.375	  9.414673	
8.4375	  9.488242	
8.5	  9.440831	
8.5625	  9.414673	
8.625	  9.480431	
8.6875	  9.420122	
8.75	  9.384155	
8.8125	  9.404682	
8.875	  9.399414	
8.9375	  9.536743	
9	  9.500413	
9.0625	  9.441920	
9.125	  9.445190	
9.1875	  9.377797	
9.25	  9.429932	
9.3125	  9.447007	
9.375	  9.368896	
9.4375	  9.445190	
9.5	  9.461176	
9.5625	  9.537107	
9.625	  9.475708	
9.6875	  9.506226	
9.75	  9.498960	
9.8125	  9.536743	
9.875	  9.553455	
9.9375	  9.582520	
10	  9.545463	
10.0625	  9.521484	
10.125	  9.488060	
10.1875	  9.506226	
10.25	  9.441557	
10.3125	  9.409041	
10.375	  9.399414	
10.4375	  9.425209	
10.5	  9.368896	
10.5625	  9.419578	
10.625	  9.373619	
10.6875	  9.419214	
10.75	  9.399414	
10.8125	  9.384155	
10.875	  9.483701	
10.9375	  9.513855	
11	  9.468442	
11.0625	  9.463901	
11.125	  9.377616	
11.1875	  9.429932	
11.25	  9.384155	
11.3125	  9.455000	
11.375	  9.478251	
11.4375	  9.404137	
11.5	  9.447371	
11.5625	  9.370894	
